<svg xmlns="http://www.w3.org/2000/svg" width="1200" height="630" viewBox="0 0 1200 630" role="img" aria-labelledby="title desc">
  <title id="title">TransferPro premium transfer in Astana</title>
  <desc id="desc">Brand card for social sharing and search previews.</desc>
  <defs>
    <linearGradient id="bg" x1="0" x2="1" y1="0" y2="1">
      <stop offset="0%" stop-color="#10161d" />
      <stop offset="100%" stop-color="#0a0f14" />
    </linearGradient>
    <radialGradient id="glowA" cx="0.2" cy="0.1" r="0.9">
      <stop offset="0%" stop-color="#f5c86a" stop-opacity="0.35" />
      <stop offset="100%" stop-color="#f5c86a" stop-opacity="0" />
    </radialGradient>
    <radialGradient id="glowB" cx="0.85" cy="0" r="0.8">
      <stop offset="0%" stop-color="#47a3e3" stop-opacity="0.25" />
      <stop offset="100%" stop-color="#47a3e3" stop-opacity="0" />
    </radialGradient>
  </defs>

  <rect width="1200" height="630" fill="url(#bg)" />
  <rect width="1200" height="630" fill="url(#glowA)" />
  <rect width="1200" height="630" fill="url(#glowB)" />

  <g opacity="0.2" stroke="#ffffff" stroke-width="1">
    <path d="M0 110h1200M0 220h1200M0 330h1200M0 440h1200M0 550h1200" />
    <path d="M150 0v630M300 0v630M450 0v630M600 0v630M750 0v630M900 0v630M1050 0v630" />
  </g>

  <g>
    <text x="100" y="220" fill="#f5c86a" font-family="Georgia, serif" font-size="72" font-weight="700">TransferPro</text>
    <text x="100" y="290" fill="#f0f3f7" font-family="Arial, sans-serif" font-size="38" font-weight="600">Premium transfer in Astana</text>
    <text x="100" y="350" fill="#d9dee5" font-family="Arial, sans-serif" font-size="30">Airport • Corporate • Personal Driver • 24/7</text>
  </g>

  <g transform="translate(980 430)">
    <rect x="0" y="0" width="120" height="120" rx="24" fill="#f5c86a" opacity="0.14" />
    <path d="M25 77h70M38 77l8-28h38l8 28" stroke="#f5c86a" stroke-width="7" fill="none" stroke-linecap="round" stroke-linejoin="round" />
    <circle cx="45" cy="85" r="7" fill="#f5c86a" />
    <circle cx="95" cy="85" r="7" fill="#f5c86a" />
  </g>
</svg>
